<svg width="21" height="19" viewBox="0 0 21 19" fill="none" xmlns="http://www.w3.org/2000/svg">
<path d="M20.25 6.31642V7.0989C20.25 7.44976 20.14 7.79407 19.9318 8.09531C19.7235 8.39654 19.4247 8.64345 19.067 8.80983L12.589 11.8223M0.75 6.31642V7.0989C0.749984 7.44976 0.859953 7.79407 1.06824 8.09531C1.27652 8.39654 1.57534 8.64345 1.933 8.80983L8.411 11.8223M8.411 11.8223L9.433 11.3473C9.76091 11.1947 10.1275 11.1149 10.5 11.1149C10.8725 11.1149 11.2391 11.1947 11.567 11.3473L12.59 11.8223L17.25 13.9901M8.411 11.8223L3.75 13.9901M20.25 15.3849C20.25 15.9003 20.0129 16.3946 19.591 16.759C19.169 17.1235 18.5967 17.3282 18 17.3282H3C2.40326 17.3282 1.83097 17.1235 1.40901 16.759C0.987053 16.3946 0.75 15.9003 0.75 15.3849V6.18169C0.749984 5.83083 0.859953 5.48652 1.06824 5.18529C1.27652 4.88405 1.57534 4.63714 1.933 4.47076L9.433 0.982403C9.76091 0.829856 10.1275 0.75 10.5 0.75C10.8725 0.75 11.2391 0.829856 11.567 0.982403L19.067 4.47076C19.4245 4.63707 19.7232 4.88385 19.9315 5.18491C20.1398 5.48598 20.2498 5.83012 20.25 6.18082V15.3849Z" stroke="white" stroke-width="1.5" stroke-linecap="round" stroke-linejoin="round"/>
</svg>
