<svg width="20" height="19" viewBox="0 0 20 19" fill="none" xmlns="http://www.w3.org/2000/svg">
<path d="M13.3762 7.87527V3.98876C13.3762 3.12979 12.9811 2.30599 12.2779 1.69861C11.5746 1.09123 10.6208 0.75 9.62621 0.75C8.63164 0.75 7.67782 1.09123 6.97456 1.69861C6.27129 2.30599 5.87621 3.12979 5.87621 3.98876V7.87527M17.2322 6.15397L18.4952 16.518C18.5652 17.0923 18.0452 17.5915 17.3762 17.5915H1.87621C1.71841 17.5917 1.56235 17.5632 1.41815 17.5078C1.27396 17.4525 1.14485 17.3716 1.03923 17.2703C0.933604 17.1691 0.85382 17.0498 0.80506 16.9202C0.7563 16.7905 0.739655 16.6535 0.756206 16.518L2.02021 6.15397C2.04936 5.91522 2.17983 5.69424 2.38646 5.53365C2.59308 5.37306 2.86123 5.28422 3.13921 5.28426H16.1132C16.6892 5.28426 17.1722 5.65996 17.2322 6.15397ZM6.25121 7.87527C6.25121 7.96116 6.2117 8.04354 6.14137 8.10428C6.07104 8.16502 5.97566 8.19914 5.87621 8.19914C5.77675 8.19914 5.68137 8.16502 5.61104 8.10428C5.54071 8.04354 5.50121 7.96116 5.50121 7.87527C5.50121 7.78937 5.54071 7.70699 5.61104 7.64625C5.68137 7.58551 5.77675 7.55139 5.87621 7.55139C5.97566 7.55139 6.07104 7.58551 6.14137 7.64625C6.2117 7.70699 6.25121 7.78937 6.25121 7.87527ZM13.7512 7.87527C13.7512 7.96116 13.7117 8.04354 13.6414 8.10428C13.571 8.16502 13.4757 8.19914 13.3762 8.19914C13.2767 8.19914 13.1814 8.16502 13.111 8.10428C13.0407 8.04354 13.0012 7.96116 13.0012 7.87527C13.0012 7.78937 13.0407 7.70699 13.111 7.64625C13.1814 7.58551 13.2767 7.55139 13.3762 7.55139C13.4757 7.55139 13.571 7.58551 13.6414 7.64625C13.7117 7.70699 13.7512 7.78937 13.7512 7.87527Z" stroke="#6B2BC7" stroke-width="1.5" stroke-linecap="round" stroke-linejoin="round"/>
</svg>
