<svg width="24" height="21" viewBox="0 0 24 21" fill="none" xmlns="http://www.w3.org/2000/svg">
<path d="M15 9.06854C15 9.75572 14.6839 10.4148 14.1213 10.9007C13.5587 11.3866 12.7956 11.6596 12 11.6596C11.2044 11.6596 10.4413 11.3866 9.87868 10.9007C9.31607 10.4148 9 9.75572 9 9.06854C9 8.38137 9.31607 7.72233 9.87868 7.23643C10.4413 6.75052 11.2044 6.47754 12 6.47754C12.7956 6.47754 13.5587 6.75052 14.1213 7.23643C14.6839 7.72233 15 8.38137 15 9.06854Z" stroke="white" stroke-width="1.5" stroke-linecap="round" stroke-linejoin="round"/>
<path d="M19.5 9.06858C19.5 15.2369 12 18.7848 12 18.7848C12 18.7848 4.5 15.2369 4.5 9.06858C4.5 7.35063 5.29018 5.70305 6.6967 4.48828C8.10322 3.27351 10.0109 2.59106 12 2.59106C13.9891 2.59106 15.8968 3.27351 17.3033 4.48828C18.7098 5.70305 19.5 7.35063 19.5 9.06858Z" stroke="white" stroke-width="1.5" stroke-linecap="round" stroke-linejoin="round"/>
</svg>
